<?xml version="1.0" encoding="UTF-8"?>
<svg width="935px" height="513px" viewBox="0 0 935 513" version="1.1" xmlns="http://www.w3.org/2000/svg" xmlns:xlink="http://www.w3.org/1999/xlink">
    <!-- Generator: Sketch 54.1 (76490) - https://sketchapp.com -->
    <title>Group</title>
    <desc>Created with Sketch.</desc>
    <g id="Page-1" stroke="none" stroke-width="1" fill="none" fill-rule="evenodd">
        <g id="Group" fill="#FAFAFA" fill-rule="nonzero">
            <path d="M320.323816,170.392443 C320.099962,170.56515 319.869877,170.720474 319.635131,170.855696 L267.742296,200.747682 C267.551621,200.888936 267.356674,201.017488 267.158403,201.131699 L218.564594,229.123337 C218.340741,229.296044 218.110656,229.451369 217.87591,229.58659 L161.561519,262.025539 C159.306885,263.324282 155.653272,263.325359 153.396767,262.025539 L97.0823755,229.58659 C94.8277418,228.287847 93,225.131484 93,222.531841 L93,157.653944 C93,155.056457 94.8258707,151.899016 97.0823755,150.599195 L145.676183,122.607558 C145.900037,122.434851 146.130123,122.279526 146.364868,122.144305 L198.257702,92.2523196 C198.448378,92.1110648 198.643325,91.9825119 198.841597,91.8683008 L247.435404,63.8766638 C247.659258,63.7039566 247.889344,63.5486314 248.124089,63.4134101 L304.438481,30.9744618 C306.693115,29.6757184 310.346728,29.6746406 312.603232,30.9744618 L368.917624,63.4134101 C371.172258,64.7121536 373,67.8685168 373,70.4681593 L373,135.346056 C373,137.943542 371.174129,141.100984 368.917624,142.400805 L320.323816,170.392443 L320.323816,170.392443 Z" id="Combined-Shape-Copy-2"></path>
            <path d="M467.669556,50.9155573 C469.785052,49.6953206 473.213192,49.694308 475.330444,50.9155573 L528.169556,81.3936278 C530.285052,82.6138644 532,85.579431 532,88.0219296 L532,148.978071 C532,151.418544 530.286807,154.385123 528.169556,155.606372 L475.330444,186.084443 C473.214948,187.304679 469.786808,187.305692 467.669556,186.084443 L414.830444,155.606372 C412.714948,154.386136 411,151.420569 411,148.978071 L411,88.0219296 C411,85.5814563 412.713192,82.6148771 414.830444,81.3936278 L467.669556,50.9155573 Z" id="Combined-Shape-Copy-3"></path>
            <path d="M869.375313,0.933926639 C871.533369,-0.310792342 875.030479,-0.31182531 877.190327,0.933926639 L931.092493,32.0234961 C933.25055,33.268215 935,36.2932814 935,38.7847853 L935,100.963924 C935,103.453362 933.25234,106.479462 931.092493,107.725213 L553.624687,326.066074 C551.466631,327.310792 547.969521,327.311825 545.809673,326.066074 L491.907507,294.976504 C489.749451,293.731785 488,290.706719 488,288.215215 L488,226.036076 C488,223.546638 489.74766,220.520539 491.907507,219.274787 L869.375313,0.933926639 Z" id="Combined-Shape"></path>
            <path d="M381.375313,186.933927 C383.533369,185.689208 387.030479,185.688175 389.190327,186.933927 L443.092493,218.023496 C445.25055,219.268215 447,222.293281 447,224.784785 L447,286.963924 C447,289.453362 445.25234,292.479462 443.092493,293.725213 L65.6246872,512.066074 C63.4666306,513.310792 59.9695206,513.311825 57.809673,512.066074 L3.90750706,480.976504 C1.7494505,479.731785 2.45497664e-13,476.706719 2.45497664e-13,474.215215 L2.45497664e-13,412.036076 C2.45497664e-13,409.546638 1.74765957,406.520539 3.90750706,405.274787 L381.375313,186.933927 Z" id="Combined-Shape-Copy"></path>
        </g>
    </g>
</svg>