<?xml version="1.0" encoding="UTF-8"?>
<svg width="41px" height="21px" viewBox="0 0 41 21" version="1.1" xmlns="http://www.w3.org/2000/svg" xmlns:xlink="http://www.w3.org/1999/xlink">
    <!-- Generator: Sketch 54.1 (76490) - https://sketchapp.com -->
    <title>Untitled 6</title>
    <desc>Created with Sketch.</desc>
    <g id="Page-1" stroke="none" stroke-width="1" fill="none" fill-rule="evenodd">
        <g id="logo-black" fill="#090909" fill-rule="nonzero">
            <path d="M41,0.450402145 L36.0978261,0.450402145 L33.423913,7.9383378 L30.75,0.450402145 L25.8478261,0.450402145 L31.2235054,13.1179625 L27.7058139,21 L32.6016363,21 L41,0.450402145 Z M4.45652174,2.95576408 L4.45652174,0.450402145 L0,0.450402145 L0,13.9624665 L4.45652174,13.9624665 L4.45652174,8.97989276 C4.45652174,6.78418231 5.6263587,5.32037534 6.9076087,4.95442359 C7.71535326,4.72922252 8.52309783,4.70107239 9.35869565,4.95442359 L9.35869565,0 C6.85190217,0.168900804 5.37567935,1.01340483 4.45652174,2.95576408 Z M18.7730978,10.4718499 C18.2438859,10.4718499 17.7146739,10.3873995 17.3804348,10.1903485 L25.2907609,5.40482574 C24.2601902,0.928954424 20.8620924,0 18.9402174,0 C14.2887228,0 11.4755435,3.20911528 11.4755435,7.20643432 C11.4755435,11.2037534 14.2887228,14.4128686 18.9402174,14.4128686 C21.0849185,14.4128686 22.9232337,13.6246649 24.3994565,12.189008 L22.1154891,9.1769437 C21.3077446,9.93699732 20.1100543,10.4718499 18.7730978,10.4718499 Z M18.9402174,3.94101877 C19.6644022,3.94101877 20.1657609,4.30697051 20.388587,4.67292225 L15.7649457,7.45978552 C15.486413,5.34852547 17.0461957,3.94101877 18.9402174,3.94101877 Z" id="Rey-Logo"></path>
        </g>
    </g>
</svg>